<svg width="17" height="21" viewBox="0 0 17 21" fill="none" xmlns="http://www.w3.org/2000/svg">
<path d="M14.7843 9.56667C14.516 9.21667 14.1893 8.91333 13.886 8.61C13.1043 7.91 12.2176 7.40833 11.471 6.67333C9.73263 4.97 9.34763 2.15833 10.456 0C9.34763 0.268333 8.3793 0.875 7.55097 1.54C4.5293 3.96667 3.3393 8.24833 4.76263 11.9233C4.8093 12.04 4.85597 12.1567 4.85597 12.3083C4.85597 12.565 4.68097 12.7983 4.44763 12.8917C4.1793 13.0083 3.8993 12.9383 3.67763 12.7517C3.61142 12.6962 3.55604 12.629 3.5143 12.5533C2.19597 10.885 1.98597 8.49333 2.87263 6.58C0.924299 8.16667 -0.137367 10.85 0.0142995 13.3817C0.0842995 13.965 0.154299 14.5483 0.352633 15.1317C0.515966 15.8317 0.830966 16.5317 1.18097 17.15C2.44097 19.1683 4.62263 20.615 6.96763 20.9067C9.4643 21.2217 12.136 20.7667 14.0493 19.04C16.1843 17.1033 16.931 14 15.8343 11.34L15.6826 11.0367C15.4376 10.5 14.7843 9.56667 14.7843 9.56667ZM11.0976 16.9167C10.771 17.1967 10.2343 17.5 9.8143 17.6167C8.50763 18.0833 7.20097 17.43 6.43097 16.66C7.8193 16.3333 8.64763 15.3067 8.89263 14.2683C9.09097 13.335 8.71763 12.565 8.56597 11.6667C8.42597 10.8033 8.4493 10.0683 8.7643 9.26333C8.98596 9.70667 9.2193 10.15 9.4993 10.5C10.3976 11.6667 11.8093 12.18 12.1126 13.7667C12.1593 13.93 12.1826 14.0933 12.1826 14.2683C12.2176 15.225 11.7976 16.275 11.0976 16.9167Z" fill="#FE4F04"/>
</svg>
