<svg width="18" height="21" viewBox="0 0 18 21" fill="none" xmlns="http://www.w3.org/2000/svg">
<path d="M7 2C6.71667 2 6.47933 1.904 6.288 1.712C6.09667 1.52 6.00067 1.28267 6 1C5.99933 0.717333 6.09534 0.48 6.288 0.288C6.48067 0.096 6.718 0 7 0H11C11.2833 0 11.521 0.096 11.713 0.288C11.905 0.48 12.0007 0.717333 12 1C11.9993 1.28267 11.9033 1.52033 11.712 1.713C11.5207 1.90567 11.2833 2.00133 11 2H7ZM9.713 12.713C9.90434 12.521 10 12.2833 10 12V8C10 7.71667 9.904 7.47933 9.712 7.288C9.52 7.09667 9.28267 7.00067 9 7C8.71733 6.99933 8.48 7.09533 8.288 7.288C8.096 7.48067 8 7.718 8 8V12C8 12.2833 8.096 12.521 8.288 12.713C8.48 12.905 8.71733 13.0007 9 13C9.28267 12.9993 9.52033 12.9033 9.713 12.712M5.513 20.288C4.421 19.8127 3.46667 19.1667 2.65 18.35C1.83333 17.5333 1.18767 16.579 0.713001 15.487C0.238335 14.395 0.000668065 13.2327 1.3986e-06 12C-0.000665268 10.7673 0.237001 9.60467 0.713001 8.512C1.189 7.41933 1.83467 6.46533 2.65 5.65C3.46533 4.83467 4.41967 4.189 5.513 3.713C6.60633 3.237 7.76867 2.99933 9 3C10.0333 3 11.025 3.16667 11.975 3.5C12.925 3.83333 13.8167 4.31667 14.65 4.95L15.35 4.25C15.5333 4.06667 15.7667 3.975 16.05 3.975C16.3333 3.975 16.5667 4.06667 16.75 4.25C16.9333 4.43333 17.025 4.66667 17.025 4.95C17.025 5.23333 16.9333 5.46667 16.75 5.65L16.05 6.35C16.6833 7.18333 17.1667 8.075 17.5 9.025C17.8333 9.975 18 10.9667 18 12C18 13.2333 17.7623 14.396 17.287 15.488C16.8117 16.58 16.166 17.534 15.35 18.35C14.534 19.166 13.5797 19.812 12.487 20.288C11.3943 20.764 10.232 21.0013 9 21C7.768 20.9987 6.60633 20.7613 5.513 20.288Z" fill="#FFC000"/>
</svg>
